# xmcd
#
# Track frame offsets: 
#        150
#        11977
#        29255
#        41250
#        54255
#        71142
#        81075
#        91942
#        103230
#        114127
#        129610
#        141855
#        154412
#        169755
#        185465
#        196230
#
# Disc length: 3012 seconds
#
# Revision: 2
# Processed by: cddbd v1.5.2PL0 Copyright (c) Steve Scherf et al.
# Submitted via: ExactAudioCopy v0.99pb5
#
DISCID=d50bc210
DTITLE=Ike and Tina Turner - Bold Soul Sister: The Best Of The Blue Thum
DTITLE=b Recordings
DYEAR=1997
DGENRE=
TTITLE0=Bold Soul Sister
TTITLE1=I've Been Loving You Too Long
TTITLE2=3 O'Clock In The Morning Blues
TTITLE3=You Don't Love Me (Yes, I Know)
TTITLE4=I Smell Trouble
TTITLE5=Please Love Me
TTITLE6=Mean Old World
TTITLE7=Dust My Broom
TTITLE8=Early In The Morning
TTITLE9=Crazy 'Bout You Baby
TTITLE10=Reconsider Baby
TTITLE11=Rock Me Baby
TTITLE12=Five Long Years
TTITLE13=I Am A Motherless Child
TTITLE14=Honest I Do
TTITLE15=The Hunter
EXTD=
EXTT0=
EXTT1=
EXTT2=
EXTT3=
EXTT4=
EXTT5=
EXTT6=
EXTT7=
EXTT8=
EXTT9=
EXTT10=
EXTT11=
EXTT12=
EXTT13=
EXTT14=
EXTT15=
PLAYORDER=
